<?xml version="1.0" encoding="UTF-8"?>
<svg width="260px" height="260px" viewBox="0 0 260 260" version="1.1" xmlns="http://www.w3.org/2000/svg" xmlns:xlink="http://www.w3.org/1999/xlink">
    <!-- Generator: Sketch 52.4 (67378) - http://www.bohemiancoding.com/sketch -->
    <title>icon</title>
    <desc>Created with Sketch.</desc>
    <g id="icon" stroke="none" stroke-width="1" fill="none" fill-rule="evenodd">
        <g id="logo" fill="#6535CB" fill-rule="nonzero">
            <path d="M86.4246964,28.33155 L131.822473,75.3678934 L170.094713,37.9985371 C170.975303,37.1402401 172.379789,37.1625336 173.238086,38.0431239 C173.695102,38.5112859 173.901316,39.1355018 173.862302,39.7374243 L168.439426,232.887672 C168.422706,233.523035 168.138465,234.085944 167.703743,234.476079 C143.942985,258.281573 132.293741,269.930817 132.75601,269.423812 C133.218279,268.916807 121.230918,257.273136 96.7939265,234.492799 C96.2700309,234.024637 96.0192299,233.372554 96.05267,232.720472 L91.6887318,38.9905946 C91.6664383,37.7644561 92.6417757,36.7501052 93.8679142,36.7278118 C94.5590104,36.716665 95.1832264,37.0176263 95.6012281,37.5080817 L86.4246964,28.33155 Z M99.0121224,24.1041589 L131.337591,-8.22130964 C132.207035,-9.09075328 133.617094,-9.09075328 134.492111,-8.22130964 L166.817579,24.1041589 C167.687023,24.9736026 167.687023,26.3836618 166.817579,27.2586788 L134.492111,59.5841474 C133.622667,60.453591 132.212608,60.453591 131.337591,59.5841474 L99.0121224,27.2586788 C98.1426788,26.3892352 98.1426788,24.9791759 99.0121224,24.1041589 Z" id="Shape" transform="translate(130.145825, 130.283139) rotate(45.000000) translate(-130.145825, -130.283139) "></path>
        </g>
    </g>
</svg>