<?xml version="1.0" encoding="UTF-8"?>
<svg width="120px" height="120px" viewBox="0 0 120 120" version="1.1" xmlns="http://www.w3.org/2000/svg" xmlns:xlink="http://www.w3.org/1999/xlink">
    <!-- Generator: Sketch 52.4 (67378) - http://www.bohemiancoding.com/sketch -->
    <title>medium</title>
    <desc>Created with Sketch.</desc>
    <g id="medium" stroke="none" stroke-width="1" fill="none" fill-rule="evenodd">
        <path d="M60,0 C26.87,0 0,26.86 0,60 C0,93.135 26.87,120 60,120 C93.135,120 120,93.135 120,60 C120,26.86 93.135,0 60,0 Z M94.87,87.785 L94.87,86.61 L89.41,81.25 C88.93,80.885 88.69,80.28 88.79,79.685 L88.79,40.315 C88.69,39.72 88.93,39.115 89.41,38.75 L95,33.39 L95,32.215 L75.655,32.215 L61.865,66.615 L46.175,32.215 L25.88,32.215 L25.88,33.39 L32.42,41.265 C33.06,41.84 33.39,42.69 33.3,43.55 L33.3,74.49 C33.49,75.605 33.14,76.745 32.355,77.56 L25,86.48 L25,87.655 L45.85,87.655 L45.85,86.48 L38.495,77.56 C37.705,76.745 37.33,75.615 37.485,74.49 L37.485,47.73 L55.785,87.655 L57.91,87.655 L73.625,47.73 L73.625,79.555 C73.625,80.405 73.625,80.565 73.07,81.12 L67.42,86.61 L67.42,87.785 L94.87,87.785 Z" id="Shape" fill="#FFFFFF"></path>
    </g>
</svg>