<?xml version="1.0" standalone="no"?>
<!DOCTYPE svg PUBLIC "-//W3C//DTD SVG 20010904//EN"
 "http://www.w3.org/TR/2001/REC-SVG-20010904/DTD/svg10.dtd">
<svg version="1.0" xmlns="http://www.w3.org/2000/svg"
 width="260.000000pt" height="260.000000pt" viewBox="0 0 260.000000 260.000000"
 preserveAspectRatio="xMidYMid meet">
<metadata>
Created by potrace 1.11, written by Peter Selinger 2001-2013
</metadata>
<g transform="translate(0.000000,260.000000) scale(0.100000,-0.100000)"
fill="#000000" stroke="none">
<path d="M1823 2263 c-10 -3 -13 -62 -13 -243 0 -178 3 -240 13 -247 9 -6 390
-10 475 -4 10 1 12 54 10 249 l-3 247 -235 2 c-129 1 -241 -1 -247 -4z"/>
<path d="M1655 2196 c-17 -20 -218 -232 -410 -431 -27 -29 -118 -124 -202
-211 -83 -88 -175 -184 -205 -215 -176 -184 -422 -441 -462 -484 l-47 -49 5
-166 c3 -91 5 -206 5 -255 l1 -90 249 0 249 0 28 25 c44 41 73 68 230 216 82
78 167 159 189 179 22 21 78 74 125 119 97 92 352 333 420 396 294 275 430
407 430 419 0 16 -23 18 -245 21 -121 1 -240 3 -265 4 l-45 1 3 273 c3 257 2
272 -15 271 -10 0 -27 -11 -38 -23z"/>
</g>
</svg>
